<?xml version="1.0" standalone="no"?><!DOCTYPE svg PUBLIC "-//W3C//DTD SVG 1.1//EN" "http://www.w3.org/Graphics/SVG/1.1/DTD/svg11.dtd"><svg t="1629707644311" class="icon" viewBox="0 0 1024 1024" version="1.1" xmlns="http://www.w3.org/2000/svg" p-id="15212" width="32" height="32" xmlns:xlink="http://www.w3.org/1999/xlink"><defs><style type="text/css"></style></defs><path d="M518.6 0c-236.4 0-428 190.4-428 425 0 108 40.8 206 107.4 281 1.8 3.4 4.2 6.8 7 9.8l278 289.2c1.4 1.8 2.8 3.8 4.4 5.4 4.2 4.2 9 7.2 14.2 9.4 16 7.4 35.4 5 48.4-8 3.6-3.6 6.4-7.8 8.4-12.2l272.8-283.8c2.6-2.4 4.6-5.4 6.4-8.4 67.4-75 108.6-173.8 108.6-282.2C946.6 190.4 755 0 518.6 0z m-0.2 597.8c-106.4 0-192.8-85.8-192.8-191.4 0-105.6 86.4-191.4 192.8-191.4s192.8 85.8 192.8 191.4c0 105.6-86.4 191.4-192.8 191.4z" fill="#1296db" p-id="15213"></path></svg>